# Blender v2.81 (sub 16) OBJ File: 'wall_3.blend'
# www.blender.org
o Cube.001
v 2.000000 0.500000 -2.200000
v 2.000000 -0.000000 -2.200000
v 2.000000 -0.000000 -0.000000
v 0.000000 0.000000 -2.200000
v 0.000000 0.000000 -0.000000
v 2.000000 0.500000 -0.438365
v 0.000000 0.500000 -0.438365
v 2.000000 0.689902 -0.438365
v 2.000000 0.689902 0.000000
v 0.500000 0.500000 -2.200000
v 0.500000 0.500000 -0.438365
v 0.500000 0.689902 -0.438365
v 0.500000 0.689902 0.000000
v 0.500000 1.892522 -2.200000
v 0.000000 1.892522 -2.200000
v 0.500000 1.892522 -0.438365
v 0.000000 1.894955 -0.438365
v 0.000000 1.894955 0.000000
v 0.500000 1.894955 -0.438365
v 0.500000 1.894955 0.000000
v 0.000000 2.000000 0.000000
v 0.676899 0.689902 -0.438365
v 0.676899 1.894955 -0.438365
v 0.676899 1.894955 0.000000
v 0.500000 2.000000 -2.200000
v 0.000000 2.000000 -2.200000
v 0.000000 2.000000 -0.438365
v 0.500000 2.000000 -0.438365
v 0.500000 2.000000 0.000000
v 0.676899 2.000000 -0.438365
v 0.676899 2.000000 0.000000
v 0.000000 1.892522 -0.438365
v 0.676899 0.689902 0.000000
vt 0.038118 0.859525
vt 0.086423 0.818683
vt 0.086361 0.859577
vt 0.038247 0.859671
vt 0.086293 0.818536
vt 0.086354 0.859625
vt 0.244130 0.830065
vt 0.244131 0.835403
vt 0.210642 0.835409
vt 0.086601 0.814395
vt 0.044167 0.814420
vt 0.038493 0.814424
vt 0.163787 0.859718
vt 0.098560 0.807886
vt 0.163569 0.807712
vt 0.000000 0.000000
vt 0.000000 0.000000
vt 0.000000 0.000000
vt 0.345285 0.970766
vt 0.334938 0.962845
vt 0.345297 0.939090
vt 0.329940 0.828502
vt 0.329940 0.835384
vt 0.329940 0.835384
vt 0.038493 0.814424
vt 0.022443 0.808083
vt 0.038478 0.808074
vt 0.164613 0.807584
vt 0.164613 0.818127
vt 0.164613 0.818127
vt 0.038493 0.814424
vt 0.038478 0.808074
vt 0.022150 0.818597
vt 0.038186 0.818582
vt 0.038186 0.818582
vt 0.038493 0.814424
vt 0.038478 0.808074
vt 0.038478 0.808074
vt 0.329940 0.828502
vt 0.329940 0.828502
vt 0.038247 0.859671
vt 0.022150 0.818597
vt 0.306108 0.970758
vt 0.306111 0.962839
vt 0.306111 0.962839
vt 0.038180 0.818630
vt 0.163692 0.818074
vt 0.163569 0.859764
vt 0.163569 0.859764
vt 0.038493 0.814424
vt 0.038493 0.814424
vt 0.038478 0.808074
vt 0.038186 0.818582
vt 0.038186 0.818582
vt 0.038478 0.808074
vt 0.044152 0.808070
vt 0.041023 0.818579
vt 0.038186 0.818582
vt 0.163642 0.807688
vt 0.163822 0.818065
vt 0.295531 0.835384
vt 0.329940 0.827285
vt 0.244130 0.830065
vt 0.210634 0.808617
vt 0.244124 0.808611
vt 0.098778 0.859893
vt 0.000000 0.000000
vt 0.334946 0.939088
vt 0.022458 0.814433
vt 0.164613 0.807584
vt 0.329940 0.828502
vt 0.022211 0.859686
vt 0.306108 0.970758
vt 0.038118 0.859525
vt 0.163561 0.818065
vt 0.086586 0.808046
vt 0.022150 0.818597
vt 0.086293 0.818536
vt 0.022150 0.818597
vt 0.098867 0.859773
vt 0.098857 0.807698
vt 0.295531 0.807857
vt 0.329940 0.807857
vn 1.0000 0.0000 0.0000
vn 0.0000 1.0000 0.0000
vn 0.0000 0.0000 1.0000
vn -0.0000 -1.0000 0.0000
vn 0.0000 0.0000 -1.0000
vn -1.0000 0.0000 0.0000
s off
f 14/1/1 11/2/1 10/3/1
f 10/4/2 6/5/2 1/6/2
f 6/7/1 9/8/1 3/9/1
f 8/10/3 22/11/3 12/12/3
f 4/13/4 3/14/4 5/15/4
f 16/16/3 27/17/3 32/18/3
f 4/19/5 10/20/5 2/21/5
f 20/22/3 21/23/3 18/24/3
f 28/25/2 21/26/2 29/27/2
f 18/28/6 27/29/6 17/30/6
f 19/31/1 29/27/1 20/32/1
f 17/33/5 28/34/5 19/35/5
f 22/36/1 24/37/1 33/38/1
f 24/39/3 29/40/3 20/22/3
f 25/41/2 27/42/2 28/34/2
f 15/43/5 25/44/5 14/45/5
f 14/1/1 28/34/1 16/46/1
f 32/47/6 26/48/6 15/49/6
f 29/27/2 30/50/2 28/25/2
f 23/51/1 31/52/1 24/37/1
f 19/35/5 30/53/5 23/54/5
f 12/12/2 13/55/2 33/56/2
f 22/57/5 6/5/5 11/58/5
f 18/59/6 17/60/6 32/47/6
f 18/24/3 5/61/3 33/62/3
f 14/1/1 16/46/1 11/2/1
f 10/4/2 11/58/2 6/5/2
f 6/7/1 8/63/1 9/8/1
f 3/9/1 2/64/1 6/7/1
f 2/64/1 1/65/1 6/7/1
f 4/13/4 2/66/4 3/14/4
f 16/16/3 28/67/3 27/17/3
f 4/19/5 15/43/5 10/20/5
f 15/43/5 14/45/5 10/20/5
f 10/20/5 1/68/5 2/21/5
f 20/22/3 29/40/3 21/23/3
f 28/25/2 27/69/2 21/26/2
f 18/28/6 21/70/6 27/29/6
f 19/31/1 28/25/1 29/27/1
f 17/33/5 27/42/5 28/34/5
f 22/36/1 23/51/1 24/37/1
f 24/39/3 31/71/3 29/40/3
f 25/41/2 26/72/2 27/42/2
f 15/43/5 26/73/5 25/44/5
f 14/1/1 25/74/1 28/34/1
f 32/47/6 27/75/6 26/48/6
f 29/27/2 31/52/2 30/50/2
f 23/51/1 30/50/1 31/52/1
f 19/35/5 28/34/5 30/53/5
f 33/56/2 9/76/2 8/10/2
f 8/10/2 12/12/2 33/56/2
f 17/33/5 19/35/5 32/77/5
f 19/35/5 23/54/5 22/57/5
f 22/57/5 8/78/5 6/5/5
f 19/35/5 22/57/5 32/77/5
f 11/58/5 7/79/5 22/57/5
f 7/79/5 32/77/5 22/57/5
f 32/47/6 15/49/6 4/80/6
f 4/80/6 5/81/6 32/47/6
f 5/81/6 18/59/6 32/47/6
f 5/61/3 3/82/3 33/62/3
f 3/82/3 9/83/3 33/62/3
f 33/62/3 24/39/3 20/22/3
f 20/22/3 18/24/3 33/62/3
